<svg width="713" height="584" viewBox="0 0 713 584" fill="none" xmlns="http://www.w3.org/2000/svg">
<rect width="713" height="583.002" rx="20" fill="#C3AED6"/>
<path d="M95.0286 334.285C97.1097 319.887 117.89 319.887 119.971 334.285V334.285C120.867 340.483 126.18 345.083 132.443 345.083H136.365C149.75 345.083 157.964 359.745 150.975 371.16L133.746 399.299C131.457 403.037 130.548 407.459 131.175 411.797L136.704 450.051C138.388 461.706 122.89 467.302 116.74 457.258V457.258C112.514 450.355 102.486 450.355 98.2597 457.258V457.258C92.1104 467.302 76.6115 461.706 78.2962 450.051L83.8253 411.797C84.4523 407.459 83.5426 403.037 81.2538 399.299L64.0248 371.16C57.0357 359.745 65.2502 345.083 78.6349 345.083H82.5573C88.8203 345.083 94.1327 340.483 95.0286 334.285V334.285Z" fill="white" fill-opacity="0.25"/>
<path d="M558.907 111.885C569.468 106.08 575.078 126.808 568.034 145.612L567.063 148.204C564.441 155.205 563.789 163.55 565.4 169.501L567.641 177.782C571.31 191.338 561.594 211.14 554.525 204.516V204.516C550.96 201.175 545.857 204.823 542.845 212.865L542.456 213.901C536.614 229.499 525.816 226.732 526.391 209.784L526.998 191.863C527.268 183.898 525.484 177.303 522.234 174.258L514.923 167.407C508.008 160.928 511.792 137.778 520.552 132.963L521.134 132.643C525.651 130.161 529.386 121.455 529.682 112.717V112.717C530.269 95.3898 542.428 84.6155 546.096 98.1715L548.337 106.453C549.948 112.404 553.519 114.846 557.451 112.685L558.907 111.885Z" fill="white" fill-opacity="0.25"/>
<path d="M464.141 344.437C462.465 327.681 474.732 311.058 480.421 322.375V322.375C482.92 327.346 487.437 327.137 491.323 321.872L492.467 320.321C501.166 308.534 510.035 319.677 506.573 338.042L503.865 352.402C502.447 359.922 502.976 367.243 505.267 371.799L510.952 383.109C516.07 393.29 508.8 414.716 500.788 413.061V413.061C496.362 412.146 491.31 418.992 489.56 428.276V428.276C486.391 445.082 474.641 449.431 473.133 434.356L471.459 417.612C470.784 410.867 468.202 406.328 464.617 405.587L457.771 404.172C449.016 402.363 448.92 379.332 457.618 367.545L458.762 365.994C462.648 360.729 464.877 351.796 464.141 344.437V344.437Z" fill="white" fill-opacity="0.25"/>
<rect width="93.5002" height="208.473" rx="20" transform="matrix(0.999915 -0.0130268 0.00252223 0.999997 76 55.9082)" fill="white" fill-opacity="0.25"/>
<rect width="146.612" height="86.2275" rx="20" transform="matrix(-0.175024 -0.984564 0.736586 -0.676344 348.031 528.288)" fill="white" fill-opacity="0.25"/>
<path d="M584.605 402.305C589.711 382.205 618.267 382.205 623.373 402.305L640.949 471.492C644.16 484.133 634.607 496.416 621.565 496.416H586.413C573.37 496.416 563.818 484.133 567.029 471.492L584.605 402.305Z" fill="white" fill-opacity="0.25"/>
<path d="M338.809 274.644C339.763 295.447 328.409 314.159 320.005 305.634L253.865 238.546C246.625 231.203 247.027 208.45 254.617 195.942L313.251 99.3072C320.841 86.7983 330.482 93.0006 331.303 110.921L338.809 274.644Z" fill="white" fill-opacity="0.25"/>
<path d="M617.508 252.511C611.985 245.597 611.897 235.663 617.293 228.25L646.848 187.647C658.309 171.902 682.65 179.001 682.82 198.137L683.514 276.61C683.683 295.747 659.488 305.065 647.758 290.38L617.508 252.511Z" fill="white" fill-opacity="0.25"/>
<ellipse cx="255.207" cy="423.05" rx="34.203" ry="79.2284" fill="white" fill-opacity="0.25"/>
<ellipse cx="438.718" cy="159.952" rx="34.8607" ry="79.2284" fill="white" fill-opacity="0.25"/>
</svg>
