<svg width="714" height="588" viewBox="0 0 714 588" fill="none" xmlns="http://www.w3.org/2000/svg">
<path d="M0 20C0 8.95432 8.95431 0 20 0H693.8C704.846 0 713.8 8.95431 713.8 20V568C713.8 579.046 704.846 588 693.8 588H20C8.95429 588 0 579.046 0 568V20Z" fill="#D789D7"/>
<path d="M117.436 444.96C117.436 464.049 102.747 478.996 85.2637 478.996C67.7806 478.996 53.0918 464.049 53.0918 444.96C53.0918 425.871 67.7806 410.925 85.2637 410.925C102.747 410.925 117.436 425.871 117.436 444.96Z" stroke="#D9A5D9" stroke-width="13"/>
<path d="M149.119 390.913C149.119 410.002 134.431 424.949 116.947 424.949C99.4642 424.949 84.7754 410.002 84.7754 390.913C84.7754 371.824 99.4642 356.877 116.947 356.877C134.431 356.877 149.119 371.824 149.119 390.913Z" stroke="#D9A5D9" stroke-width="13"/>
<path d="M175.211 444.96C175.211 464.049 160.522 478.996 143.039 478.996C125.556 478.996 110.867 464.049 110.867 444.96C110.867 425.871 125.556 410.925 143.039 410.925C160.522 410.925 175.211 425.871 175.211 444.96Z" stroke="#D9A5D9" stroke-width="13"/>
<path d="M226.463 528.827C226.463 547.916 211.774 562.863 194.291 562.863C176.808 562.863 162.119 547.916 162.119 528.827C162.119 509.738 176.808 494.791 194.291 494.791C211.774 494.791 226.463 509.738 226.463 528.827Z" stroke="#D9A5D9" stroke-width="13"/>
<path d="M258.147 474.78C258.147 493.869 243.458 508.815 225.975 508.815C208.492 508.815 193.803 493.869 193.803 474.78C193.803 455.69 208.492 440.744 225.975 440.744C243.458 440.744 258.147 455.69 258.147 474.78Z" stroke="#D9A5D9" stroke-width="13"/>
<path d="M284.238 528.827C284.238 547.916 269.55 562.863 252.066 562.863C234.583 562.863 219.895 547.916 219.895 528.827C219.895 509.738 234.583 494.791 252.066 494.791C269.55 494.791 284.238 509.738 284.238 528.827Z" stroke="#D9A5D9" stroke-width="13"/>
<path d="M318.717 403.959C318.717 423.048 304.028 437.995 286.545 437.995C269.062 437.995 254.373 423.048 254.373 403.959C254.373 384.87 269.062 369.924 286.545 369.924C304.028 369.924 318.717 384.87 318.717 403.959Z" stroke="#D9A5D9" stroke-width="13"/>
<path d="M350.401 349.912C350.401 369.001 335.712 383.947 318.229 383.947C300.745 383.947 286.057 369.001 286.057 349.912C286.057 330.823 300.745 315.876 318.229 315.876C335.712 315.876 350.401 330.823 350.401 349.912Z" stroke="#D9A5D9" stroke-width="13"/>
<path d="M376.492 403.959C376.492 423.048 361.804 437.995 344.32 437.995C326.837 437.995 312.148 423.048 312.148 403.959C312.148 384.87 326.837 369.924 344.32 369.924C361.804 369.924 376.492 384.87 376.492 403.959Z" stroke="#D9A5D9" stroke-width="13"/>
<path d="M592.962 113.571C575.962 122.255 555.97 115.974 548.016 100.404C540.063 84.8351 546.691 64.9548 563.691 56.2708C580.69 47.5869 600.683 53.8683 608.636 69.4376C616.589 85.007 609.961 104.887 592.962 113.571Z" stroke="#D9A5D9" stroke-width="13"/>
<path d="M655.507 117.199C638.507 125.883 618.515 119.602 610.561 104.032C602.608 88.463 609.236 68.5827 626.236 59.8988C643.235 51.2148 663.228 57.4962 671.181 73.0656C679.134 88.6349 672.506 108.515 655.507 117.199Z" stroke="#D9A5D9" stroke-width="13"/>
<path d="M619.245 165.022C602.245 173.706 582.253 167.424 574.299 151.855C566.346 136.286 572.974 116.405 589.974 107.722C606.973 99.0376 626.966 105.319 634.919 120.888C642.873 136.458 636.244 156.338 619.245 165.022Z" stroke="#D9A5D9" stroke-width="13"/>
<path d="M400.554 172.65C391.097 196.995 364.864 208.951 342.318 200.192C319.771 191.434 308.488 164.904 317.945 140.56C327.402 116.215 353.635 104.26 376.182 113.018C398.728 121.776 410.011 148.306 400.554 172.65Z" stroke="#D9A5D9" stroke-width="13"/>
<path d="M465.072 121.529C455.615 145.874 429.381 157.829 406.835 149.071C384.289 140.312 373.006 113.783 382.463 89.4384C391.92 65.094 418.153 53.1382 440.699 61.8966C463.246 70.6551 474.529 97.1847 465.072 121.529Z" stroke="#D9A5D9" stroke-width="13"/>
<path d="M471.314 200.138C461.857 224.482 435.624 236.438 413.077 227.679C390.531 218.921 379.248 192.391 388.705 168.047C398.162 143.702 424.395 131.747 446.941 140.505C469.488 149.263 480.771 175.793 471.314 200.138Z" stroke="#D9A5D9" stroke-width="13"/>
<path d="M244.987 136.517C244.987 204.329 192.819 258.033 129.994 258.033C67.168 258.033 15 204.329 15 136.517C15 68.7043 67.168 15 129.994 15C192.819 15 244.987 68.7043 244.987 136.517Z" stroke="#D9A5D9" stroke-width="30"/>
<circle cx="444.119" cy="306.205" r="26.6486" fill="#D9A5D9"/>
<circle cx="528.274" cy="306.205" r="26.6486" fill="#D9A5D9"/>
<circle cx="612.426" cy="306.205" r="26.6486" fill="#D9A5D9"/>
<circle cx="444.119" cy="404.384" r="26.6486" fill="#D9A5D9"/>
<circle cx="528.274" cy="404.384" r="26.6486" fill="#D9A5D9"/>
<circle cx="612.426" cy="404.384" r="26.6486" fill="#D9A5D9"/>
<circle cx="444.119" cy="502.563" r="26.6486" fill="#D9A5D9"/>
<circle cx="528.274" cy="502.563" r="26.6486" fill="#D9A5D9"/>
<circle cx="612.426" cy="502.563" r="26.6486" fill="#D9A5D9"/>
</svg>
