<svg width="713" height="588" viewBox="0 0 713 588" fill="none" xmlns="http://www.w3.org/2000/svg">
<path d="M0 20C0 8.95432 8.95431 0 20 0H693C704.046 0 713 8.95431 713 20V568C713 579.046 704.046 588 693 588H20C8.9543 588 0 579.046 0 568V20Z" fill="#5D54A4"/>
<path d="M87.4692 460.955L136.342 329.664L159.67 509.921L87.4692 460.955Z" fill="#A49FCC" fill-opacity="0.44"/>
<path d="M565.085 92.3714L639.612 42.2798L627.341 198.808L565.085 92.3714Z" fill="#A49FCC"/>
<path d="M354.441 428.968L431.984 474.252L285.727 531.354L354.441 428.968Z" fill="#A49FCC"/>
<path d="M512.085 443.371L586.612 393.28L574.341 549.808L512.085 443.371Z" fill="#A49FCC"/>
<path d="M150.152 226.263L73.1774 202.572L112.153 71.0022L150.152 226.263Z" fill="#A49FCC"/>
<circle cx="290.649" cy="156.649" r="26.6486" fill="#A49FCC"/>
<circle cx="374.803" cy="156.649" r="26.6486" fill="#A49FCC"/>
<circle cx="458.955" cy="156.649" r="26.6486" fill="#A49FCC"/>
<circle cx="290.649" cy="254.828" r="26.6486" fill="#A49FCC"/>
<circle cx="374.803" cy="254.828" r="26.6486" fill="#A49FCC"/>
<circle cx="458.955" cy="254.828" r="26.6486" fill="#A49FCC"/>
<circle cx="290.649" cy="353.007" r="26.6486" fill="#A49FCC"/>
<circle cx="374.803" cy="353.007" r="26.6486" fill="#A49FCC"/>
<circle cx="458.955" cy="353.007" r="26.6486" fill="#A49FCC"/>
</svg>
