<svg width="717" height="588" viewBox="0 0 717 588" fill="none" xmlns="http://www.w3.org/2000/svg">
<path d="M4 20C4 8.95432 12.9543 0 24 0H697C708.046 0 717 8.95431 717 20V568C717 579.046 708.046 588 697 588H24C12.9543 588 4 579.046 4 568V20Z" fill="#EFBBCF"/>
<path d="M657.88 375.415C657.88 410.994 651.865 442.899 642.389 465.668C637.645 477.067 632.161 485.867 626.404 491.718C620.669 497.546 615.057 500.085 609.787 500.085C604.516 500.085 598.904 497.546 593.169 491.718C587.412 485.867 581.929 477.067 577.184 465.668C567.708 442.899 561.693 410.994 561.693 375.415C561.693 339.837 567.708 307.931 577.184 285.162C581.929 273.763 587.412 264.964 593.169 259.113C598.904 253.285 604.516 250.746 609.787 250.746C615.057 250.746 620.669 253.285 626.404 259.113C632.161 264.964 637.645 273.763 642.389 285.162C651.865 307.931 657.88 339.837 657.88 375.415Z" stroke="#F0D1DD" stroke-width="13"/>
<path d="M463.686 442.169C463.686 477.748 457.672 509.653 448.195 532.422C443.451 543.821 437.967 552.621 432.21 558.472C426.475 564.299 420.864 566.838 415.593 566.838C410.322 566.838 404.711 564.299 398.976 558.472C393.219 552.621 387.735 543.821 382.991 532.422C373.514 509.653 367.5 477.748 367.5 442.169C367.5 406.591 373.514 374.685 382.991 351.916C387.735 340.517 393.219 331.718 398.976 325.867C404.711 320.039 410.322 317.5 415.593 317.5C420.864 317.5 426.475 320.039 432.21 325.867C437.967 331.718 443.451 340.517 448.195 351.916C457.672 374.685 463.686 406.591 463.686 442.169Z" stroke="#F0D1DD" stroke-width="13"/>
<path d="M603.5 109C603.5 148.814 569.928 181.5 528 181.5C486.072 181.5 452.5 148.814 452.5 109C452.5 69.1856 486.072 36.5 528 36.5C569.928 36.5 603.5 69.1856 603.5 109Z" stroke="#F0D1DD" stroke-width="13"/>
<path d="M407.5 79C407.5 118.814 373.928 151.5 332 151.5C290.072 151.5 256.5 118.814 256.5 79C256.5 39.1856 290.072 6.5 332 6.5C373.928 6.5 407.5 39.1856 407.5 79Z" stroke="#F0D1DD" stroke-width="13"/>
<path d="M335.5 262C335.5 301.814 301.928 334.5 260 334.5C218.072 334.5 184.5 301.814 184.5 262C184.5 222.186 218.072 189.5 260 189.5C301.928 189.5 335.5 222.186 335.5 262Z" stroke="#F0D1DD" stroke-width="13"/>
<path d="M157.5 494C157.5 533.814 123.928 566.5 82 566.5C40.072 566.5 6.5 533.814 6.5 494C6.5 454.186 40.072 421.5 82 421.5C123.928 421.5 157.5 454.186 157.5 494Z" stroke="#F0D1DD" stroke-width="13"/>
<path d="M287.5 506.5C287.5 526.172 270.925 542.5 250 542.5C229.075 542.5 212.5 526.172 212.5 506.5C212.5 486.828 229.075 470.5 250 470.5C270.925 470.5 287.5 486.828 287.5 506.5Z" stroke="#F0D1DD" stroke-width="13"/>
<path d="M247.5 399.5C247.5 419.172 230.925 435.5 210 435.5C189.075 435.5 172.5 419.172 172.5 399.5C172.5 379.828 189.075 363.5 210 363.5C230.925 363.5 247.5 379.828 247.5 399.5Z" stroke="#F0D1DD" stroke-width="13"/>
</svg>
