<svg width="722" height="596" viewBox="0 0 722 596" fill="none" xmlns="http://www.w3.org/2000/svg">
<g filter="url(#filter0_d)">
<path d="M4 20C4 8.95432 12.9543 0 24 0H697.8C708.846 0 717.8 8.95431 717.8 20V568C717.8 579.046 708.846 588 697.8 588H24C12.9543 588 4 579.046 4 568V20Z" fill="#9D65C9"/>
<rect x="483" y="469" width="175" height="32" fill="white" fill-opacity="0.46"/>
<rect x="51" y="68" width="175" height="32" fill="white" fill-opacity="0.46"/>
<rect x="130" y="110" width="175" height="32" fill="white" fill-opacity="0.46"/>
<rect x="51" y="150" width="175" height="32" fill="white" fill-opacity="0.46"/>
<rect x="59" y="501" width="175" height="32" fill="white" fill-opacity="0.46"/>
<rect x="186" y="451" width="175" height="32" fill="white" fill-opacity="0.46"/>
<rect x="274" y="501" width="175" height="32" fill="white" fill-opacity="0.46"/>
<circle cx="482.649" cy="83.649" r="26.6486" fill="#CAACE2"/>
<circle cx="566.803" cy="83.6486" r="26.6486" fill="#CAACE2"/>
<circle cx="650.955" cy="83.6486" r="26.6486" fill="#CAACE2"/>
<circle cx="482.649" cy="181.828" r="26.6486" fill="#CAACE2"/>
<circle cx="566.803" cy="181.828" r="26.6486" fill="#CAACE2"/>
<circle cx="650.955" cy="181.828" r="26.6486" fill="#CAACE2"/>
<circle cx="482.649" cy="280.007" r="26.6486" fill="#CAACE2"/>
<circle cx="566.803" cy="280.007" r="26.6486" fill="#CAACE2"/>
<circle cx="650.955" cy="280.007" r="26.6486" fill="#CAACE2"/>
</g>
<defs>
<filter id="filter0_d" x="0" y="0" width="721.8" height="596" filterUnits="userSpaceOnUse" color-interpolation-filters="sRGB">
<feFlood flood-opacity="0" result="BackgroundImageFix"/>
<feColorMatrix in="SourceAlpha" type="matrix" values="0 0 0 0 0 0 0 0 0 0 0 0 0 0 0 0 0 0 127 0"/>
<feOffset dy="4"/>
<feGaussianBlur stdDeviation="2"/>
<feColorMatrix type="matrix" values="0 0 0 0 0 0 0 0 0 0 0 0 0 0 0 0 0 0 0.25 0"/>
<feBlend mode="normal" in2="BackgroundImageFix" result="effect1_dropShadow"/>
<feBlend mode="normal" in="SourceGraphic" in2="effect1_dropShadow" result="shape"/>
</filter>
</defs>
</svg>
