<svg width="700" height="254" viewBox="0 0 700 254" fill="none" xmlns="http://www.w3.org/2000/svg">
<path d="M0 20C0 8.9543 8.95431 0 20 0H680C691.046 0 700 8.95431 700 20V252H0V20Z" fill="#C3AED6"/>
<path d="M93.5 107L104.613 140.858L140.577 140.858L111.482 161.784L122.595 195.642L93.5 174.716L64.4046 195.642L75.5181 161.784L46.4227 140.858L82.3866 140.858L93.5 107Z" fill="white" fill-opacity="0.25"/>
<path d="M575.608 41.8263L552.483 68.9928L571.173 99.3814L538.19 85.7826L515.065 112.949L517.806 77.3781L484.823 63.7793L519.5 55.394L522.241 19.823L540.931 50.2116L575.608 41.8263Z" fill="white" fill-opacity="0.25"/>
<path d="M448.997 119.427L475.842 142.924L506.485 124.653L492.434 157.446L519.28 180.943L483.75 177.713L469.698 210.506L461.791 175.717L426.261 172.486L456.904 154.216L448.997 119.427Z" fill="white" fill-opacity="0.25"/>
<rect x="148.33" y="29.9011" width="68.449" height="67.1575" transform="rotate(-0.328435 148.33 29.9011)" fill="white" fill-opacity="0.25"/>
<rect x="341.68" y="228.206" width="67.2517" height="67.2517" transform="rotate(-112 341.68 228.206)" fill="white" fill-opacity="0.25"/>
<path d="M587 156L629.435 229.5H544.565L587 156Z" fill="white" fill-opacity="0.25"/>
<path d="M314.378 138.036L236.712 103.372L305.565 53.4427L314.378 138.036Z" fill="white" fill-opacity="0.25"/>
<path d="M597.059 104.02L669.846 60.0218L671.556 145.056L597.059 104.02Z" fill="white" fill-opacity="0.25"/>
<ellipse cx="250.5" cy="183" rx="33.5" ry="34" fill="white" fill-opacity="0.25"/>
<ellipse cx="430.5" cy="69" rx="34.5" ry="34" fill="white" fill-opacity="0.25"/>
</svg>
