<svg width="712" height="256" viewBox="0 0 712 256" fill="none" xmlns="http://www.w3.org/2000/svg">
<path d="M0 20C0 8.95431 8.9543 0 20 0H691.549C702.594 0 711.549 8.95431 711.549 20V256H0V20Z" fill="#D789D7"/>
<path d="M250.19 128C250.19 191.162 201.803 241 143.754 241C85.7056 241 37.3184 191.162 37.3184 128C37.3184 64.838 85.7056 15 143.754 15C201.803 15 250.19 64.838 250.19 128Z" stroke="#D9A5D9" stroke-width="30"/>
<circle cx="501.496" cy="36.759" r="24.9436" fill="#D9A5D9"/>
<circle cx="580.266" cy="36.759" r="24.9436" fill="#D9A5D9"/>
<circle cx="659.035" cy="36.759" r="24.9436" fill="#D9A5D9"/>
<circle cx="501.496" cy="128.656" r="24.9436" fill="#D9A5D9"/>
<circle cx="580.266" cy="128.656" r="24.9436" fill="#D9A5D9"/>
<circle cx="659.035" cy="128.656" r="24.9436" fill="#D9A5D9"/>
<circle cx="501.496" cy="220.554" r="24.9436" fill="#D9A5D9"/>
<circle cx="580.266" cy="220.554" r="24.9436" fill="#D9A5D9"/>
<circle cx="659.035" cy="220.554" r="24.9436" fill="#D9A5D9"/>
</svg>
