<svg width="712" height="256" viewBox="0 0 712 256" fill="none" xmlns="http://www.w3.org/2000/svg">
<path d="M0 20C0 8.95431 8.9543 0 20 0H691.55C702.596 0 711.55 8.95431 711.55 20V256H0V20Z" fill="#EFBBCF"/>
<path d="M200.927 63.0155C200.927 90.898 179.45 112.967 153.601 112.967C127.752 112.967 106.275 90.898 106.275 63.0155C106.275 35.133 127.752 13.0642 153.601 13.0642C179.45 13.0642 200.927 35.133 200.927 63.0155Z" stroke="#F0D1DD" stroke-width="13"/>
<path d="M281.009 163.446C281.009 191.764 259.463 214.054 233.683 214.054C207.903 214.054 186.357 191.764 186.357 163.446C186.357 135.128 207.903 112.838 233.683 112.838C259.463 112.838 281.009 135.128 281.009 163.446Z" stroke="#F0D1DD" stroke-width="13"/>
<path d="M652.537 163.446C652.537 191.688 630.769 214.054 604.554 214.054C578.34 214.054 556.572 191.688 556.572 163.446C556.572 135.205 578.34 112.838 604.554 112.838C630.769 112.838 652.537 135.205 652.537 163.446Z" stroke="#F0D1DD" stroke-width="13"/>
<path d="M543.574 70.2359C543.574 98.4774 521.806 120.844 495.592 120.844C469.377 120.844 447.609 98.4774 447.609 70.2359C447.609 41.9943 469.377 19.6282 495.592 19.6282C521.806 19.6282 543.574 41.9943 543.574 70.2359Z" stroke="#F0D1DD" stroke-width="13"/>
<path d="M388.659 82.0513C388.659 110.369 367.114 132.659 341.334 132.659C315.553 132.659 294.008 110.369 294.008 82.0513C294.008 53.7336 315.553 31.4436 341.334 31.4436C367.114 31.4436 388.659 53.7336 388.659 82.0513Z" stroke="#F0D1DD" stroke-width="13"/>
<path d="M470.054 176.574C470.054 204.892 448.508 227.182 422.728 227.182C396.948 227.182 375.402 204.892 375.402 176.574C375.402 148.257 396.948 125.967 422.728 125.967C448.508 125.967 470.054 148.257 470.054 176.574Z" stroke="#F0D1DD" stroke-width="13"/>
</svg>
