<svg width="1040" height="374" viewBox="0 0 1040 374" fill="none" xmlns="http://www.w3.org/2000/svg">
<path d="M0 20C0 8.9543 8.9543 0 20 0H1019.53C1030.58 0 1039.53 8.9543 1039.53 20V374H0V20Z" fill="#5D54A4"/>
<path d="M332.262 254.54L403.517 171.031L437.528 285.685L332.262 254.54Z" fill="#A49FCC" fill-opacity="0.44"/>
<path d="M827.377 139.953L936.035 108.092L918.143 207.653L827.377 139.953Z" fill="#A49FCC"/>
<path d="M642.067 193.403L722.424 273.181L626.595 305.574L642.067 193.403Z" fill="#A49FCC"/>
<path d="M480.226 139.953L588.885 108.092L570.993 207.653L480.226 139.953Z" fill="#A49FCC"/>
<path d="M280.02 173.959L167.794 158.891L224.619 75.2048L280.02 173.959Z" fill="#A49FCC"/>
</svg>
